<svg xmlns="http://www.w3.org/2000/svg" version="1.1" xmlns:xlink="http://www.w3.org/1999/xlink" xmlns:svgjs="http://svgjs.dev/svgjs" viewBox="0 0 1422 800" opacity="1"><defs><linearGradient x1="50%" y1="0%" x2="50%" y2="100%" id="oooscillate-grad"><stop stop-color="hsl(119, 55%, 26%)" stop-opacity="1" offset="0%"></stop><stop stop-color="hsl(84, 81%, 9%)" stop-opacity="1" offset="100%"></stop></linearGradient></defs><g stroke-width="1.5" stroke="url(#oooscillate-grad)" fill="none" stroke-linecap="round"><path d="M 0 704 Q 355.5 -100 711 400 Q 1066.5 900 1422 704" stroke-dasharray="1 17" opacity="1.00"></path><path d="M 0 682 Q 355.5 -100 711 400 Q 1066.5 900 1422 682" stroke-dasharray="14 7" opacity="0.97"></path><path d="M 0 660 Q 355.5 -100 711 400 Q 1066.5 900 1422 660" stroke-dasharray="2 7" opacity="0.94"></path><path d="M 0 638 Q 355.5 -100 711 400 Q 1066.5 900 1422 638" stroke-dasharray="19 0" opacity="0.91"></path><path d="M 0 616 Q 355.5 -100 711 400 Q 1066.5 900 1422 616" stroke-dasharray="13 18" opacity="0.88"></path><path d="M 0 594 Q 355.5 -100 711 400 Q 1066.5 900 1422 594" stroke-dasharray="9 15" opacity="0.85"></path><path d="M 0 572 Q 355.5 -100 711 400 Q 1066.5 900 1422 572" stroke-dasharray="18 13" opacity="0.82"></path><path d="M 0 550 Q 355.5 -100 711 400 Q 1066.5 900 1422 550" stroke-dasharray="2 8" opacity="0.79"></path><path d="M 0 528 Q 355.5 -100 711 400 Q 1066.5 900 1422 528" stroke-dasharray="3 1" opacity="0.75"></path><path d="M 0 506 Q 355.5 -100 711 400 Q 1066.5 900 1422 506" stroke-dasharray="12 14" opacity="0.72"></path><path d="M 0 484 Q 355.5 -100 711 400 Q 1066.5 900 1422 484" stroke-dasharray="20 4" opacity="0.69"></path><path d="M 0 462 Q 355.5 -100 711 400 Q 1066.5 900 1422 462" stroke-dasharray="7 21" opacity="0.66"></path><path d="M 0 440 Q 355.5 -100 711 400 Q 1066.5 900 1422 440" stroke-dasharray="1 20" opacity="0.63"></path><path d="M 0 418 Q 355.5 -100 711 400 Q 1066.5 900 1422 418" stroke-dasharray="17 21" opacity="0.60"></path><path d="M 0 396 Q 355.5 -100 711 400 Q 1066.5 900 1422 396" stroke-dasharray="14 16" opacity="0.57"></path><path d="M 0 374 Q 355.5 -100 711 400 Q 1066.5 900 1422 374" stroke-dasharray="11 15" opacity="0.54"></path><path d="M 0 352 Q 355.5 -100 711 400 Q 1066.5 900 1422 352" stroke-dasharray="15 8" opacity="0.51"></path><path d="M 0 330 Q 355.5 -100 711 400 Q 1066.5 900 1422 330" stroke-dasharray="12 18" opacity="0.48"></path><path d="M 0 308 Q 355.5 -100 711 400 Q 1066.5 900 1422 308" stroke-dasharray="20 12" opacity="0.45"></path><path d="M 0 286 Q 355.5 -100 711 400 Q 1066.5 900 1422 286" stroke-dasharray="8 12" opacity="0.42"></path><path d="M 0 264 Q 355.5 -100 711 400 Q 1066.5 900 1422 264" stroke-dasharray="11 12" opacity="0.39"></path><path d="M 0 242 Q 355.5 -100 711 400 Q 1066.5 900 1422 242" stroke-dasharray="8 19" opacity="0.36"></path><path d="M 0 220 Q 355.5 -100 711 400 Q 1066.5 900 1422 220" stroke-dasharray="11 20" opacity="0.33"></path><path d="M 0 198 Q 355.5 -100 711 400 Q 1066.5 900 1422 198" stroke-dasharray="16 19" opacity="0.30"></path><path d="M 0 176 Q 355.5 -100 711 400 Q 1066.5 900 1422 176" stroke-dasharray="5 9" opacity="0.26"></path><path d="M 0 154 Q 355.5 -100 711 400 Q 1066.5 900 1422 154" stroke-dasharray="7 8" opacity="0.23"></path><path d="M 0 132 Q 355.5 -100 711 400 Q 1066.5 900 1422 132" stroke-dasharray="17 3" opacity="0.20"></path><path d="M 0 110 Q 355.5 -100 711 400 Q 1066.5 900 1422 110" stroke-dasharray="9 21" opacity="0.17"></path><path d="M 0 88 Q 355.5 -100 711 400 Q 1066.5 900 1422 88" stroke-dasharray="13 4" opacity="0.14"></path><path d="M 0 66 Q 355.5 -100 711 400 Q 1066.5 900 1422 66" stroke-dasharray="15 0" opacity="0.11"></path><path d="M 0 44 Q 355.5 -100 711 400 Q 1066.5 900 1422 44" stroke-dasharray="12 8" opacity="0.08"></path></g></svg>